<?xml version="1.0" standalone="no"?>
<!DOCTYPE svg PUBLIC "-//W3C//DTD SVG 20010904//EN"
 "http://www.w3.org/TR/2001/REC-SVG-20010904/DTD/svg10.dtd">
<svg version="1.0" xmlns="http://www.w3.org/2000/svg"
 width="1200.000000pt" height="1200.000000pt" viewBox="0 0 1200.000000 1200.000000"
 preserveAspectRatio="xMidYMid meet">
<metadata>
Created by potrace 1.14, written by Peter Selinger 2001-2017
</metadata>
<g transform="translate(0.000000,1200.000000) scale(0.100000,-0.100000)"
fill="#000000" stroke="none">
<path d="M3089 9506 c-102 -27 -181 -95 -228 -196 l-26 -55 0 -1765 0 -1765
33 -62 c40 -74 95 -126 171 -162 l56 -26 2885 0 2885 0 67 33 c77 38 130 92
167 171 l26 56 0 1760 0 1760 -27 57 c-37 78 -90 133 -167 171 l-66 32 -2865
2 c-2249 1 -2875 -1 -2911 -11z m5602 -152 c136 -40 234 -138 277 -278 4 -11
8 -649 9 -1417 3 -1278 2 -1400 -14 -1444 -20 -60 -30 -79 -68 -132 -30 -42
-129 -115 -175 -129 -14 -4 -32 -10 -40 -13 -8 -3 -1216 -7 -2683 -8 -2620 -3
-2669 -3 -2727 16 -70 23 -131 63 -180 118 -44 49 -57 73 -81 141 -18 52 -19
111 -19 1437 0 1335 1 1385 19 1444 38 122 128 214 253 258 l63 22 2656 1
c2408 0 2660 -1 2710 -16z m-2603 -3589 c31 -34 34 -42 30 -85 -9 -94 -86
-143 -173 -110 -86 33 -99 165 -23 217 26 18 44 22 82 19 42 -3 55 -9 84 -41z"/>
<path d="M3255 9117 c-5 -7 -17 -22 -26 -32 -9 -11 -20 -30 -23 -42 l-7 -23
2785 0 c1532 0 2786 3 2786 8 0 13 -41 77 -58 90 -23 18 -5442 17 -5457 -1z"/>
<path d="M3190 8915 l0 -45 2795 0 2795 0 0 45 0 45 -2795 0 -2795 0 0 -45z"/>
<path d="M3190 8775 l0 -35 2795 0 2795 0 0 35 0 35 -2795 0 -2795 0 0 -35z"/>
<path d="M3200 8665 l0 -25 1560 0 1560 0 0 25 0 25 -1560 0 -1560 0 0 -25z"/>
<path d="M6660 8665 l0 -25 1060 0 1060 0 0 25 0 25 -1060 0 -1060 0 0 -25z"/>
<path d="M3190 8565 c0 -13 170 -15 1470 -15 1300 0 1470 2 1470 15 0 13 -170
15 -1470 15 -1300 0 -1470 -2 -1470 -15z"/>
<path d="M6430 8568 c-64 -18 -125 -72 -157 -138 -24 -49 -24 -163 0 -211 39
-79 121 -137 204 -147 95 -10 187 35 243 120 31 48 34 60 35 128 0 60 -5 84
-23 119 -58 110 -183 163 -302 129z"/>
<path d="M6830 8565 c0 -13 115 -15 975 -15 860 0 975 2 975 15 0 13 -115 15
-975 15 -860 0 -975 -2 -975 -15z"/>
<path d="M3343 8399 c-48 -9 -99 -33 -130 -62 l-23 -20 0 -1005 c0 -704 3
-1016 11 -1042 15 -49 57 -96 110 -120 44 -19 72 -20 2675 -20 l2630 0 55 28
c44 22 58 36 81 81 l28 53 0 1018 0 1019 -27 19 c-100 69 -239 75 -403 17 -95
-33 -171 -71 -300 -148 -63 -38 -131 -78 -150 -89 -19 -11 -42 -26 -51 -34 -8
-8 -19 -14 -23 -14 -4 0 -42 -20 -86 -45 -151 -88 -328 -153 -456 -169 -23 -3
-104 -6 -180 -6 -152 -2 -243 -16 -376 -60 -117 -39 -304 -133 -373 -188 -5
-4 -26 -18 -45 -32 -19 -13 -63 -48 -97 -77 -33 -29 -68 -53 -77 -53 -9 0 -16
-4 -16 -10 0 -7 422 -10 1246 -10 l1246 0 -28 -37 c-15 -21 -31 -40 -34 -43
-4 -3 -6 -14 -5 -25 1 -20 -5 -20 -769 -20 -921 0 -1216 -10 -1185 -39 23 -22
349 -31 1111 -31 397 0 718 -4 718 -9 0 -4 -19 -35 -43 -67 l-42 -58 -57 -1
c-31 0 -60 5 -63 10 -7 11 -58 14 -68 4 -3 -3 -331 -7 -729 -9 -800 -4 -1008
-11 -1023 -35 -14 -23 148 -30 850 -36 336 -3 613 -6 616 -7 4 -1 -11 -39 -32
-84 l-38 -82 -106 1 -107 0 -32 67 c-42 88 -60 88 -102 1 l-32 -65 -304 -1
c-397 -2 -862 -12 -916 -20 -24 -4 -40 -10 -35 -14 13 -13 196 -20 662 -25
239 -3 436 -7 436 -8 1 -1 -10 -29 -26 -63 l-28 -61 -363 -2 c-534 -3 -832
-12 -846 -26 -20 -20 64 -23 703 -31 259 -4 471 -8 473 -9 2 -2 -8 -25 -22
-53 -25 -49 -26 -50 -63 -45 -21 3 -51 5 -68 5 -338 -3 -1904 0 -1921 4 -13 4
-30 2 -37 -3 -12 -9 -152 -11 -160 -3 -9 10 -48 92 -45 95 2 1 194 6 428 9
500 7 620 12 634 26 7 7 2 10 -15 11 -13 1 -42 3 -64 4 -97 7 -434 15 -712 16
l-302 2 -29 61 c-16 33 -28 62 -27 63 1 2 168 5 371 8 428 6 581 12 603 25 14
8 13 10 -4 10 -11 1 -29 3 -40 5 -27 6 -588 17 -904 19 l-253 1 -32 65 c-42
87 -59 87 -102 -1 l-33 -66 -106 -2 -106 -1 -38 82 c-22 46 -36 84 -32 85 3 1
272 4 596 7 534 5 721 10 780 21 11 2 26 4 33 4 6 1 12 5 12 9 0 5 -6 9 -12
10 -7 0 -35 3 -63 7 -114 13 -284 17 -935 20 -377 2 -693 7 -703 10 -9 4 -30
4 -45 0 -15 -4 -52 -9 -82 -11 l-55 -5 -41 58 c-22 32 -43 63 -46 68 -4 7 237
10 715 10 809 0 1086 10 1060 36 -26 26 -307 34 -1175 34 -405 0 -731 3 -725
7 13 8 0 38 -39 86 l-27 32 1147 0 c757 0 1146 3 1146 10 0 6 -15 10 -33 10
-27 0 -45 11 -93 56 -166 156 -353 266 -554 325 -60 18 -101 22 -350 33 -186
9 -306 63 -666 302 -307 204 -446 259 -591 233z m130 -1172 c-24 -40 -63 -88
-63 -78 0 7 -7 19 -14 27 -13 13 -12 17 7 37 23 24 83 36 70 14z m5057 -1 c0
-7 9 -16 21 -19 20 -5 20 -6 3 -31 -19 -30 -31 -25 -63 30 l-20 34 29 0 c19 0
30 -5 30 -14z m-4850 -194 c0 -2 -9 -15 -20 -29 l-20 -25 -10 27 c-13 35 -14
34 20 32 16 -1 30 -4 30 -5z m267 -48 c-18 -38 -22 -42 -31 -27 -5 10 -18 26
-29 35 -31 28 -16 44 36 40 l46 -4 -22 -44z m4111 2 c-18 -22 -33 -43 -34 -44
-1 -2 -11 16 -21 40 l-20 43 31 5 c17 3 41 4 53 2 23 -4 22 -5 -9 -46z m272
48 c0 -2 -5 -15 -10 -29 l-10 -27 -20 25 c-27 34 -25 38 10 35 17 -1 30 -3 30
-4z m-3992 -238 c1 -2 -9 -31 -24 -65 l-27 -61 -68 0 c-39 0 -69 4 -69 10 0 6
14 10 30 10 39 0 46 19 24 65 -12 26 -14 39 -6 44 10 6 133 3 140 -3z m3422 4
c0 -2 -8 -24 -17 -48 -16 -42 -16 -45 0 -57 9 -7 29 -10 43 -7 19 3 25 1 20
-7 -4 -6 -35 -11 -75 -11 l-68 0 -27 61 c-14 33 -26 63 -26 67 0 4 34 7 75 7
41 0 75 -2 75 -5z m-3118 -56 l-27 -56 -22 49 c-12 26 -22 51 -22 56 -1 4 21
7 49 7 l50 0 -28 -56z m2738 47 c0 -17 -18 -21 -24 -6 -3 9 0 15 9 15 8 0 15
-4 15 -9z m-3118 -195 c5 -9 22 -16 38 -16 34 0 35 -4 15 -53 -13 -31 -18 -35
-52 -35 -37 0 -39 1 -60 56 -12 30 -20 59 -18 63 8 13 68 1 77 -15z m3508 12
c0 -5 -9 -26 -20 -48 -11 -22 -20 -46 -20 -53 0 -10 -11 -14 -40 -13 -46 2
-44 1 -63 47 l-15 36 28 1 c16 0 37 9 47 19 19 19 83 27 83 11z m-3499 -168
c-2 -8 -5 -26 -5 -40 -1 -22 4 -26 39 -30 26 -3 35 -8 27 -13 -7 -5 -10 -13
-7 -18 4 -5 -19 -9 -54 -9 -66 0 -66 -1 -105 93 l-15 38 62 -3 c49 -3 61 -6
58 -18z m3512 -19 c-39 -93 -38 -92 -101 -89 -44 2 -58 7 -60 20 -2 12 5 17
30 20 28 3 33 7 32 28 -1 14 -4 32 -8 41 -6 14 2 16 57 16 l65 0 -15 -36z
m-2783 17 c0 -4 -11 -24 -25 -44 -14 -20 -25 -43 -25 -51 0 -10 -10 -13 -36
-11 -33 3 -39 8 -59 54 l-22 51 35 1 c19 1 36 3 38 4 6 6 94 2 94 -4z m1934
-13 c-8 -11 -23 -37 -32 -57 l-17 -38 -837 0 c-754 0 -838 2 -838 16 0 8 -11
30 -25 48 -14 18 -25 37 -25 42 0 5 367 9 895 9 892 0 894 0 879 -20z m246 5
c0 -4 -6 -22 -13 -39 l-14 -32 -26 35 c-15 19 -27 38 -27 43 0 5 18 7 40 5 22
-2 40 -8 40 -12z"/>
<path d="M4969 5333 c-7 -286 -204 -638 -478 -853 -143 -113 -193 -139 -340
-176 -51 -13 -105 -31 -118 -39 -32 -22 -49 -64 -52 -131 l-2 -54 2007 0 2007
0 -6 66 c-3 43 -12 76 -24 93 -19 25 -93 57 -158 68 -178 30 -440 233 -588
456 -104 156 -177 354 -193 522 -3 28 -7 56 -9 63 -4 9 -217 12 -1025 12
l-1020 0 -1 -27z"/>
<path d="M2160 3880 c-91 -27 -176 -105 -202 -187 -15 -44 -18 -171 -6 -213
22 -78 93 -152 168 -174 77 -24 268 -9 271 21 3 34 3 103 1 103 -2 0 -29 -7
-60 -16 -154 -45 -264 40 -249 194 10 109 66 164 170 168 34 1 79 -3 100 -11
l37 -13 1 37 c0 20 2 46 3 58 2 14 -4 24 -18 28 -31 10 -187 14 -216 5z"/>
<path d="M2495 3593 l0 -288 68 -3 67 -3 -1 93 c0 51 0 105 0 121 l1 27 120 0
119 0 0 -102 c0 -57 0 -111 0 -120 1 -15 11 -18 66 -18 l64 0 0 290 0 290 -64
0 -65 0 -1 -42 c0 -24 0 -76 0 -115 l1 -73 -120 0 -120 0 -1 38 c0 20 0 72 0
115 l1 77 -68 0 -67 0 0 -287z"/>
<path d="M3279 3873 c-2 -19 -13 -52 -104 -297 -52 -143 -95 -263 -95 -268 0
-4 31 -8 68 -8 l69 0 18 60 18 60 107 0 107 0 18 -60 18 -60 72 0 72 0 -59
168 c-99 278 -120 336 -128 357 -5 11 -11 28 -14 38 -4 14 -18 17 -86 17 -44
0 -80 -3 -81 -7z m88 -125 c0 -7 11 -49 25 -93 14 -44 29 -90 33 -102 6 -22 4
-23 -65 -23 -70 0 -72 1 -66 23 4 12 9 32 12 45 2 12 14 48 25 80 11 31 22 63
24 70 3 6 6 12 8 12 2 0 4 -6 4 -12z"/>
<path d="M3715 3592 l0 -287 60 0 60 0 -1 198 c-1 108 2 197 6 197 4 0 31 -66
59 -147 29 -82 61 -170 71 -198 l18 -50 55 -3 c45 -2 55 0 60 15 3 10 27 79
53 153 26 74 57 169 70 210 l23 75 0 -227 1 -228 65 0 65 0 0 290 0 290 -95 0
c-52 0 -95 -1 -95 -3 0 -2 -27 -82 -61 -178 -33 -96 -62 -182 -64 -191 -2 -10
-8 -26 -14 -35 -10 -17 -10 -17 -11 2 0 23 -20 87 -85 270 -25 71 -45 131 -45
132 0 2 -44 3 -97 3 l-98 0 0 -288z m128 138 c3 -11 1 -20 -4 -20 -5 0 -9 9
-9 20 0 11 2 20 4 20 2 0 6 -9 9 -20z"/>
<path d="M4515 3593 l0 -288 68 -3 68 -3 -2 95 c-2 53 0 98 2 100 2 3 33 6 67
7 155 6 239 100 218 244 -8 50 -55 102 -108 121 -18 6 -96 12 -173 13 l-140 2
0 -288z m254 170 c47 -32 41 -125 -9 -150 -36 -18 -110 -17 -111 2 0 8 0 44 0
80 0 36 0 70 0 75 1 15 97 9 120 -7z"/>
<path d="M5029 3873 c-1 -5 -2 -135 -3 -291 l-1 -282 173 0 172 0 0 55 0 55
-107 0 -108 0 1 235 1 235 -64 0 c-34 0 -63 -3 -64 -7z"/>
<path d="M5593 3848 c-6 -18 -31 -89 -56 -158 -25 -69 -60 -163 -77 -210 -16
-47 -34 -94 -39 -105 -5 -11 -13 -32 -20 -47 l-11 -28 74 0 73 0 18 60 18 60
107 0 107 0 18 -60 18 -60 73 0 72 0 -30 83 c-16 45 -47 132 -69 192 -21 61
-54 153 -72 205 l-34 95 -80 3 -79 3 -11 -33z m121 -193 c16 -49 30 -98 33
-107 5 -16 -3 -18 -66 -18 -39 0 -71 3 -71 6 0 4 14 50 31 103 17 53 32 102
32 109 1 25 14 -4 41 -93z"/>
<path d="M5986 3853 c1 -16 3 -38 3 -50 1 -14 8 -23 24 -25 22 -3 22 -4 22
-190 l0 -188 -22 0 c-21 0 -23 -5 -23 -50 l0 -50 114 0 114 0 -2 48 c-2 40 -5
47 -24 50 -24 4 -24 3 -23 227 0 161 -1 153 24 157 19 3 22 9 23 51 l2 47
-117 0 -117 0 2 -27z"/>
<path d="M6305 3590 l0 -290 63 0 63 0 -3 205 c-3 171 -1 202 10 188 7 -10 68
-102 135 -205 l122 -187 68 -1 67 0 0 290 0 291 -62 -3 -63 -3 1 -192 c0 -106
-1 -193 -2 -193 -1 0 -59 88 -129 195 l-127 195 -72 0 -71 0 0 -290z"/>
<path d="M7143 3858 c6 -28 164 -491 180 -531 12 -27 13 -28 86 -25 l74 3 39
115 c52 152 145 421 153 443 6 15 0 17 -63 17 l-69 0 -64 -215 c-35 -118 -67
-215 -71 -215 -7 0 -14 19 -22 61 -2 8 -5 21 -8 29 -4 8 -16 49 -28 90 -13 41
-30 100 -40 130 -10 31 -21 70 -24 88 l-8 32 -70 0 c-68 0 -70 -1 -65 -22z"/>
<path d="M7876 3828 c-10 -29 -28 -80 -41 -113 -42 -111 -145 -400 -145 -407
0 -5 31 -8 68 -8 l69 0 18 60 18 60 107 0 107 0 17 -60 17 -60 73 0 74 0 -43
118 c-23 64 -56 158 -74 207 -17 50 -44 126 -60 170 l-28 80 -79 3 -79 3 -19
-53z m104 -95 c1 -10 8 -36 16 -58 8 -22 17 -47 19 -55 2 -8 9 -31 14 -50 6
-19 11 -36 11 -37 0 -2 -31 -3 -70 -3 -38 0 -70 3 -70 7 0 4 14 54 32 110 30
96 47 127 48 86z"/>
<path d="M8335 3590 l0 -290 172 0 c108 0 173 4 174 10 0 6 1 24 1 40 0 64 7
60 -107 60 l-105 0 -1 28 c0 15 -1 119 -2 232 l-2 205 -65 3 -65 3 0 -291z"/>
<path d="M8755 3592 l0 -287 173 -3 c190 -3 174 -8 174 58 0 52 4 50 -107 50
l-105 0 -1 43 c0 23 0 129 0 235 l0 192 -67 0 -67 0 0 -288z"/>
<path d="M9188 3873 c-2 -5 -4 -134 -3 -288 l0 -280 174 0 175 0 1 53 2 52
-109 0 c-79 0 -108 3 -109 13 -1 13 -1 84 0 105 1 9 27 12 97 12 l95 0 -2 55
-2 55 -94 0 c-55 0 -93 4 -94 10 -1 6 -1 26 -1 45 0 69 -7 65 101 65 l99 0 3
33 c2 17 3 42 1 55 -3 22 -5 22 -167 22 -90 0 -165 -3 -167 -7z"/>
<path d="M9583 3833 c14 -27 55 -111 92 -187 l69 -139 0 -101 1 -101 65 -3 65
-3 1 108 2 108 91 178 c50 99 91 181 91 183 0 2 -30 4 -67 4 l-68 0 -55 -129
c-42 -98 -56 -124 -61 -107 -6 20 -53 131 -86 204 -15 32 -16 32 -89 32 l-74
0 23 -47z"/>
<path d="M6729 3074 c-77 -23 -119 -77 -119 -154 0 -83 35 -124 155 -181 65
-31 85 -45 95 -70 12 -27 11 -33 -9 -52 -40 -41 -162 -29 -223 22 -17 13 -18
10 -18 -51 0 -64 1 -66 33 -79 20 -9 70 -14 132 -14 88 0 105 3 145 25 59 33
87 84 84 151 -3 72 -39 113 -142 164 -116 58 -128 71 -108 117 18 41 127 49
195 14 l31 -17 0 60 c0 60 0 61 -32 69 -50 14 -167 11 -219 -4z"/>
<path d="M7543 3071 c-94 -32 -169 -111 -194 -206 -16 -59 -6 -173 21 -225 52
-104 134 -146 280 -144 52 1 102 3 110 6 58 17 90 31 91 41 1 7 2 74 3 149 l1
138 -121 0 c-134 0 -131 1 -129 -65 l1 -40 57 -3 c61 -3 60 -1 59 -71 -1 -45
-15 -53 -86 -47 -62 5 -95 22 -130 70 -26 35 -32 160 -10 205 24 48 78 89 127
96 49 8 130 -1 158 -15 38 -21 45 -13 45 47 l-1 57 -41 12 c-61 18 -182 15
-241 -5z"/>
<path d="M3480 3075 c0 -6 44 -177 92 -355 17 -63 33 -124 35 -135 3 -11 9
-35 15 -53 l10 -33 76 3 76 3 13 50 c7 28 15 59 18 70 2 11 16 63 30 115 30
111 37 140 38 158 1 31 14 6 27 -50 7 -35 14 -67 15 -73 2 -5 8 -28 14 -50 6
-22 11 -43 12 -47 1 -4 12 -45 24 -90 l22 -83 73 0 74 0 23 85 c13 47 25 94
28 105 2 11 26 102 53 203 l49 182 -67 0 -67 0 -6 -32 c-5 -28 -54 -262 -61
-293 -2 -5 -6 -32 -11 -60 l-8 -50 -14 50 c-7 28 -15 63 -18 79 -3 16 -8 32
-10 36 -2 4 -6 20 -9 36 -3 16 -17 73 -31 128 -14 54 -25 100 -25 102 0 2 -31
4 -70 4 l-69 0 -16 -57 c-9 -32 -23 -80 -31 -108 -41 -145 -64 -236 -64 -251
0 -25 -10 -11 -16 22 -3 16 -14 67 -24 114 -10 47 -26 121 -35 165 -25 125
-17 115 -96 115 -38 0 -69 -2 -69 -5z"/>
<path d="M4377 3073 c-2 -5 -3 -134 -3 -288 l1 -280 175 -3 176 -2 -1 52 -1
53 -107 3 c-59 1 -107 7 -108 12 0 6 -1 24 -1 40 0 88 -9 80 96 80 l93 0 1 55
0 55 -93 0 c-53 0 -95 4 -97 10 -1 5 -1 32 0 60 l4 50 99 0 99 0 0 55 0 55
-164 0 c-91 0 -166 -3 -169 -7z"/>
<path d="M4818 3073 c-3 -4 -4 -134 -3 -288 l1 -280 145 0 c79 0 156 3 172 8
41 11 105 73 113 110 10 42 5 85 -12 120 -17 31 -68 67 -99 67 -14 1 -9 6 18
21 53 28 79 73 74 127 -10 91 -71 119 -270 121 -74 1 -137 -2 -139 -6z m242
-106 c34 -17 39 -62 9 -93 -18 -19 -33 -24 -70 -24 l-47 0 -3 38 c-2 20 -3 49
-1 65 3 25 7 27 45 27 23 0 53 -6 67 -13z m35 -244 c22 -23 24 -38 10 -82 -8
-25 -48 -41 -105 -41 l-48 0 -4 59 c-5 93 -5 92 63 90 48 -2 64 -7 84 -26z"/>
<path d="M5589 3073 c-1 -4 -2 -135 -3 -291 l-1 -283 139 2 c185 3 242 21 310
101 50 58 70 131 63 230 -8 127 -69 204 -185 234 -53 13 -321 19 -323 7z m263
-113 c126 -35 152 -232 42 -317 -26 -19 -50 -27 -100 -31 -41 -3 -68 -1 -73 6
-5 8 -6 274 -2 340 1 15 80 16 133 2z"/>
<path d="M6195 2790 l0 -290 175 2 175 3 0 40 c1 66 3 65 -110 65 l-103 0 -3
38 c-2 20 -3 49 -1 65 l3 27 94 0 94 0 -1 55 -2 55 -93 0 c-101 0 -95 -4 -95
60 0 64 -7 60 102 60 l100 0 0 55 0 55 -168 0 -167 0 0 -290z"/>
<path d="M7059 3075 c0 -3 -1 -21 -1 -40 0 -54 1 -55 25 -55 l23 0 0 -190 c-1
-188 -1 -190 -23 -190 -23 0 -31 -23 -24 -72 l3 -28 112 0 112 0 0 50 c0 45
-2 50 -23 50 -15 0 -23 6 -24 18 -1 21 -1 333 0 349 1 6 11 13 24 15 19 3 22
9 23 51 l2 47 -114 0 c-63 0 -114 -2 -115 -5z"/>
<path d="M7966 2798 c1 -156 2 -286 3 -290 1 -5 28 -8 61 -8 l61 0 -3 205 c-3
171 -1 202 10 188 7 -10 68 -102 135 -205 l122 -188 68 0 67 0 0 290 0 291
-62 -3 -63 -3 1 -192 c0 -106 0 -193 -1 -193 -2 0 -60 88 -130 195 l-128 195
-71 0 -71 0 1 -282z"/>
<path d="M3217 2844 c-1 -1 -63 -5 -137 -9 -74 -4 -153 -9 -175 -10 -22 -1
-98 -6 -170 -10 -71 -4 -148 -9 -170 -10 -22 -2 -70 -5 -107 -6 -38 -2 -68 -6
-68 -9 0 -4 6 -7 13 -7 15 0 274 -14 337 -18 80 -5 243 -15 330 -20 47 -3 124
-7 173 -10 l87 -6 0 61 0 60 -56 -2 c-30 -2 -56 -4 -57 -4z"/>
<path d="M8660 2790 l0 -62 88 6 c143 10 231 15 342 21 119 7 190 11 340 21
58 3 111 7 118 7 6 0 12 4 12 9 0 4 -19 8 -42 9 -24 0 -62 2 -85 4 -23 1 -97
6 -165 9 -68 4 -154 9 -193 11 -38 3 -108 7 -155 10 -47 3 -124 7 -172 11
l-88 6 0 -62z"/>
<path d="M9570 2791 c0 -4 13 -7 30 -7 16 0 28 2 25 4 -8 9 -55 11 -55 3z"/>
</g>
</svg>
