<?xml version="1.0" standalone="no"?>
<!DOCTYPE svg PUBLIC "-//W3C//DTD SVG 20010904//EN"
 "http://www.w3.org/TR/2001/REC-SVG-20010904/DTD/svg10.dtd">
<svg version="1.0" xmlns="http://www.w3.org/2000/svg"
 width="1024.000000pt" height="1024.000000pt" viewBox="0 0 1024.000000 1024.000000"
 preserveAspectRatio="xMidYMid meet">

<g transform="translate(0.000000,1024.000000) scale(0.100000,-0.100000)"
fill="#000000" stroke="none">
<path d="M3015 8116 c-22 -7 -54 -20 -71 -29 -43 -22 -109 -97 -125 -143 -12
-33 -14 -303 -14 -1639 l0 -1600 30 -59 c34 -67 92 -117 164 -141 42 -14 266
-15 2196 -13 l2150 3 54 30 c29 16 68 47 87 69 69 80 64 -40 62 1737 l-3 1606
-30 48 c-17 27 -50 64 -73 82 -89 68 76 63 -2266 62 -1681 0 -2129 -3 -2161
-13z m4200 -266 c82 -40 75 83 75 -1382 0 -1283 0 -1304 -20 -1336 -11 -18
-34 -41 -52 -52 -33 -20 -55 -20 -2039 -20 l-2006 0 -34 23 c-18 12 -44 38
-56 56 l-23 34 0 1303 0 1302 27 33 c53 62 -94 58 2087 59 1973 0 2000 0 2041
-20z m-2005 -2985 c36 -19 50 -43 50 -88 0 -45 -46 -87 -94 -87 -99 0 -120
148 -26 183 25 9 40 8 70 -8z"/>
<path d="M3167 7773 c-4 -3 -7 -18 -7 -32 l0 -26 2015 0 2015 0 0 33 0 32
-2008 0 c-1105 0 -2012 -3 -2015 -7z"/>
<path d="M3160 7661 c0 -18 34 -19 1153 -25 633 -4 1541 -6 2017 -4 857 3 865
3 865 23 0 20 -8 20 -2017 23 -1969 2 -2018 2 -2018 -17z"/>
<path d="M3160 7585 c0 -10 338 -13 1498 -17 1651 -5 2542 0 2542 13 0 5 -617
10 -1412 11 -777 1 -1686 2 -2020 3 -469 1 -608 -1 -608 -10z"/>
<path d="M3160 7500 c0 -7 678 -10 2014 -10 1333 0 2017 3 2021 10 4 7 -670
10 -2014 10 -1341 0 -2021 -3 -2021 -10z"/>
<path d="M3160 7432 c0 -15 -133 -14 2158 -14 1031 0 1876 3 1879 6 4 3 -795
6 -1774 6 -979 0 -1888 3 -2021 7 -181 5 -242 3 -242 -5z"/>
<path d="M3160 7348 c0 -5 908 -8 2018 -7 1109 0 2013 2 2007 5 -18 7 -4025 9
-4025 2z"/>
<path d="M5344 7131 c-76 -35 -117 -117 -95 -191 14 -49 60 -103 101 -120 44
-18 130 -8 169 19 102 73 90 236 -22 290 -53 26 -99 26 -153 2z"/>
<path d="M3225 6856 c-28 -7 -56 -16 -63 -20 -9 -5 -12 -195 -12 -829 0 -452
4 -828 8 -835 7 -10 418 -12 2023 -10 l2014 3 3 829 c1 567 -1 833 -8 841 -15
18 -121 35 -217 35 -162 0 -308 -57 -527 -204 -221 -149 -269 -167 -456 -165
-72 1 -144 -3 -170 -10 -25 -7 -124 -50 -220 -95 -96 -46 -202 -94 -235 -107
-33 -12 -64 -26 -68 -29 -10 -8 741 -20 1263 -20 212 0 395 -3 408 -6 28 -8
28 -21 -3 -67 l-26 -37 -81 0 c-79 0 -83 1 -116 33 l-33 32 -27 -32 -27 -31
-380 -7 c-432 -8 -661 -18 -625 -27 26 -7 313 -22 719 -39 135 -5 247 -11 249
-13 2 -2 -4 -18 -13 -35 -15 -31 -16 -31 -95 -31 -74 0 -81 2 -96 25 -21 33
-35 32 -62 -5 l-23 -30 -124 0 c-112 0 -124 2 -130 19 -3 10 -14 26 -24 35
-18 16 -21 15 -53 -18 l-34 -35 -254 -11 c-140 -6 -256 -13 -259 -16 -2 -2 9
-4 25 -4 107 0 461 -24 469 -31 6 -6 -3 -32 -25 -74 -29 -53 -39 -65 -60 -65
-47 0 -65 11 -88 51 -12 21 -26 39 -31 39 -4 0 -16 -16 -27 -35 l-19 -35 -105
-1 c-58 -1 -152 -5 -210 -9 -115 -7 -111 -8 157 -19 l151 -6 -22 -55 -22 -55
-471 -3 -470 -2 -22 51 c-13 28 -20 53 -18 55 2 3 85 9 183 14 98 5 193 10
209 11 48 4 -169 16 -292 18 l-111 1 -22 38 -22 37 -17 -23 c-37 -53 -58 -71
-87 -77 -30 -6 -32 -3 -73 66 -23 40 -38 76 -34 80 5 3 127 12 273 19 146 6
266 13 267 14 4 3 -441 26 -508 26 -53 0 -58 2 -83 35 -30 39 -42 38 -71 -5
l-20 -30 -120 0 -121 0 -17 30 c-22 37 -40 38 -65 3 -19 -27 -22 -28 -104 -25
l-85 3 -16 35 c-13 26 -14 36 -4 38 6 3 131 7 277 10 318 6 722 26 733 36 11
9 -223 19 -673 26 l-375 7 -27 31 -28 31 -27 -33 c-27 -31 -30 -32 -109 -32
l-80 0 -32 45 c-22 32 -28 46 -19 52 7 4 359 11 782 15 424 4 813 9 865 10
l95 3 -115 44 c-63 24 -172 72 -241 107 -174 87 -218 98 -361 96 -198 -3 -250
14 -468 158 -173 113 -277 165 -381 190 -96 23 -235 25 -314 6z m325 -801 c0
-7 -24 -52 -38 -74 -8 -10 -17 -5 -46 25 -19 22 -36 42 -36 47 0 4 27 7 60 7
33 0 60 -2 60 -5z m3360 -11 c0 -10 -52 -74 -60 -74 -4 0 -17 18 -29 40 l-21
40 55 0 c30 0 55 -3 55 -6z m-3426 -129 c-5 -12 -10 -13 -20 -4 -19 15 -18 19
6 19 13 0 18 -5 14 -15z m3416 0 c-7 -8 -16 -15 -20 -15 -4 0 -10 7 -14 15 -4
11 2 15 21 15 21 0 24 -2 13 -15z m-3020 -17 c0 -7 -9 -24 -19 -37 l-18 -23
-21 27 c-30 38 -28 45 18 45 25 0 40 -5 40 -12z m350 6 c0 -3 -17 -36 -37 -72
-35 -64 -49 -82 -65 -82 -9 0 -88 132 -88 147 0 7 35 11 95 12 52 1 95 -1 95
-5z m2074 -2 c9 -15 -74 -142 -93 -142 -22 0 -95 115 -87 137 4 9 28 13 90 13
47 0 87 -4 90 -8z m225 -33 c-11 -16 -23 -31 -28 -33 -8 -5 -43 59 -36 66 2 2
22 2 44 0 l41 -4 -21 -29z m-1979 -143 c0 -8 -9 -36 -21 -63 l-21 -48 -25 48
c-13 27 -22 55 -19 63 7 19 86 19 86 0z m1337 0 c7 -7 -37 -106 -46 -106 -4 0
-15 24 -26 53 -11 28 -21 56 -24 61 -4 10 86 2 96 -8z m393 10 c0 -12 -43 -76
-50 -76 -14 0 -52 59 -45 70 6 10 95 15 95 6z m-2120 -10 c0 -3 -10 -21 -21
-41 l-21 -36 -24 33 c-13 17 -24 36 -24 40 0 4 20 8 45 8 25 0 45 -2 45 -4z
m-35 -115 c7 -12 -12 -24 -25 -16 -11 7 -4 25 10 25 5 0 11 -4 15 -9z m2125
-6 c0 -8 -7 -15 -15 -15 -8 0 -15 7 -15 15 0 8 7 15 15 15 8 0 15 -7 15 -15z
m-633 -57 l-13 -33 -425 -3 c-422 -2 -424 -2 -441 19 -42 50 -52 49 437 49
l455 0 -13 -32z m223 14 c0 -13 -29 -48 -30 -35 0 6 -3 18 -6 27 -4 12 0 16
15 16 12 0 21 -4 21 -8z m-1300 -16 c0 -24 -17 -28 -23 -6 -3 13 0 20 9 20 8
0 14 -6 14 -14z"/>
<path d="M4490 4328 c-74 -250 -249 -405 -486 -433 -77 -8 -120 -33 -129 -74
-7 -31 -7 -31 -73 -31 -174 0 -1424 -50 -1487 -59 -228 -33 3298 -56 4815 -31
958 15 1165 27 755 44 -486 19 -939 36 -1157 42 -247 6 -248 7 -248 28 0 42
-38 64 -140 80 -114 18 -168 36 -232 77 -111 72 -219 231 -247 367 l-14 62
-668 0 -668 0 -21 -72z"/>
<path d="M1004 3416 c-223 -104 -273 -446 -93 -641 61 -66 123 -88 249 -89
l105 -1 3 56 3 56 -84 5 c-124 8 -177 39 -217 130 -74 167 2 356 155 388 32 7
77 9 101 5 l44 -6 0 60 0 61 -107 0 c-93 0 -115 -4 -159 -24z"/>
<path d="M1390 3060 l0 -381 66 3 66 3 -1 153 -2 153 108 -3 108 -3 3 -152 3
-153 64 0 65 0 0 380 0 380 -65 0 -65 0 0 -160 0 -160 -110 0 -110 0 0 160 0
160 -65 0 -65 0 0 -380z"/>
<path d="M2207 3433 c-2 -4 -21 -71 -42 -148 -20 -77 -66 -242 -101 -366 -35
-125 -64 -230 -64 -233 0 -4 30 -6 68 -4 l67 3 19 73 19 72 92 0 93 0 19 -72
20 -73 61 -3 c54 -3 62 -1 62 15 0 10 -45 180 -98 378 l-98 360 -56 3 c-31 2
-58 -1 -61 -5z m88 -343 c14 -58 28 -113 31 -122 5 -16 -2 -18 -61 -18 -59 0
-66 2 -61 18 3 9 17 66 32 125 15 59 28 106 30 105 1 -2 14 -50 29 -108z"/>
<path d="M2650 3060 l0 -381 68 3 67 3 0 203 c0 111 2 202 5 202 3 0 28 -55
56 -123 49 -118 52 -122 83 -125 32 -3 32 -3 91 122 33 69 61 126 63 126 1 0
2 -91 2 -202 l0 -203 65 0 65 0 3 378 2 378 -62 -3 -62 -3 -71 -171 c-39 -95
-76 -182 -81 -195 -10 -21 -20 0 -88 174 l-78 197 -64 0 -64 0 0 -380z"/>
<path d="M3380 3060 l0 -380 70 0 70 0 0 130 0 130 88 0 c48 0 105 5 127 11
145 41 183 294 61 415 -58 59 -116 74 -283 74 l-133 0 0 -380z m321 214 c61
-61 46 -169 -26 -200 -19 -8 -62 -14 -95 -14 l-60 0 0 126 0 126 75 -4 c68 -3
78 -6 106 -34z"/>
<path d="M3990 3060 l0 -380 213 2 212 3 3 63 3 62 -144 0 c-142 0 -145 0
-151 23 -3 12 -6 154 -6 315 l0 292 -65 0 -65 0 0 -380z"/>
<path d="M4621 3072 c-57 -202 -104 -371 -105 -377 0 -5 27 -11 61 -13 71 -3
74 -1 93 91 l11 57 98 0 97 0 18 -75 18 -75 64 0 c35 0 64 4 64 8 0 4 -18 75
-41 157 -22 83 -62 236 -90 340 -74 282 -60 255 -127 255 l-57 0 -104 -368z
m190 11 c16 -59 29 -114 29 -120 0 -9 -19 -13 -64 -13 l-63 0 30 125 c17 68
33 122 35 120 2 -2 17 -52 33 -112z"/>
<path d="M5180 3060 l0 -381 68 3 67 3 3 378 2 377 -70 0 -70 0 0 -380z"/>
<path d="M5483 3213 c4 -124 7 -295 7 -380 l0 -153 65 0 65 0 0 223 0 222 61
-110 c34 -60 87 -161 117 -222 l55 -113 44 0 43 0 0 380 0 380 -65 0 -65 0 -2
-197 -3 -198 -104 198 -103 197 -61 0 -60 0 6 -227z"/>
<path d="M6220 3437 c0 -5 135 -481 182 -644 l33 -113 47 0 46 0 20 68 c11 37
61 204 111 372 50 168 91 309 91 313 0 4 -28 7 -63 7 l-62 0 -59 -197 c-32
-109 -64 -209 -71 -222 -12 -23 -13 -21 -35 45 -13 38 -42 137 -65 219 l-42
150 -66 3 c-37 2 -67 1 -67 -1z"/>
<path d="M6830 3073 c-57 -203 -105 -374 -108 -380 -5 -15 104 -18 126 -4 7 4
20 38 28 74 l16 67 97 0 97 0 18 -75 18 -75 65 0 65 0 -6 33 c-3 18 -35 134
-70 258 -35 123 -78 279 -96 347 l-34 122 -56 0 -56 0 -104 -367z m191 5 c16
-62 29 -116 29 -120 0 -5 -30 -8 -66 -8 -49 0 -65 3 -62 13 3 6 18 62 33 124
16 62 31 110 33 108 2 -2 17 -54 33 -117z"/>
<path d="M7380 3060 l0 -380 200 0 200 0 0 65 0 64 -132 3 -133 3 -3 313 -2
312 -65 0 -65 0 0 -380z"/>
<path d="M7910 3060 l0 -380 205 0 205 0 0 65 0 65 -140 0 -140 0 0 315 0 315
-65 0 -65 0 0 -380z"/>
<path d="M8452 3063 l3 -378 210 0 210 0 3 62 3 62 -148 3 -148 3 0 85 0 85
88 3 87 3 0 64 0 65 -90 0 -90 0 0 95 0 95 140 0 140 0 0 65 0 65 -205 0 -205
0 2 -377z"/>
<path d="M8960 3435 c0 -2 39 -91 87 -197 l88 -193 5 -180 5 -180 65 0 65 0 5
175 5 175 74 160 c40 88 82 179 92 203 l18 42 -67 0 -68 0 -54 -122 c-29 -68
-57 -127 -61 -132 -7 -7 -60 97 -105 206 l-19 48 -67 0 c-38 0 -68 -2 -68 -5z"/>
<path d="M5713 2469 c-70 -20 -98 -112 -49 -158 14 -13 53 -33 88 -45 48 -17
63 -26 63 -41 0 -29 -65 -33 -110 -6 l-34 20 -21 -26 c-26 -33 -23 -42 25 -67
76 -39 192 -21 220 35 35 67 0 124 -100 162 -73 28 -87 57 -28 57 21 0 48 -7
59 -15 19 -13 23 -12 49 15 l27 28 -25 16 c-50 34 -105 42 -164 25z"/>
<path d="M6370 2469 c-79 -24 -130 -90 -130 -169 0 -136 167 -216 313 -149 26
12 27 15 27 91 l0 78 -86 0 -85 0 4 -32 c3 -31 6 -33 45 -36 33 -2 42 -7 42
-21 0 -11 -10 -21 -22 -25 -47 -12 -78 -6 -110 23 -28 25 -33 36 -33 76 0 39
5 51 28 71 32 28 66 30 108 9 28 -15 32 -14 60 6 35 25 34 37 -8 61 -38 23
-108 30 -153 17z"/>
<path d="M3172 2457 c2 -7 28 -83 58 -170 l55 -158 39 3 39 3 35 92 c19 51 37
91 41 89 4 -3 20 -45 36 -95 l29 -91 42 0 42 0 35 103 c19 56 46 133 61 170
l25 68 -51 -3 -51 -3 -29 -94 c-16 -52 -33 -90 -38 -85 -4 5 -20 48 -35 97
l-27 87 -43 0 -42 0 -33 -102 -33 -103 -28 90 c-16 50 -29 96 -29 103 0 8 -17
12 -51 12 -36 0 -50 -4 -47 -13z"/>
<path d="M3800 2300 l0 -170 138 0 137 0 2 35 3 35 -95 0 -95 0 0 30 0 30 80
0 80 0 0 40 0 40 -80 0 -80 0 0 30 0 30 90 0 90 0 0 35 0 35 -135 0 -135 0 0
-170z"/>
<path d="M4195 2448 c-3 -13 -4 -88 -3 -168 l3 -145 95 -3 c118 -4 164 8 190
51 26 42 25 70 -4 104 -22 26 -23 29 -8 59 20 43 9 80 -31 104 -26 16 -50 20
-134 20 -98 0 -103 -1 -108 -22z m190 -78 c0 -23 -4 -25 -52 -28 l-53 -3 0 31
0 31 53 -3 c48 -3 52 -5 52 -28z m10 -135 c0 -30 -1 -30 -57 -33 l-58 -3 0 36
0 36 58 -3 c56 -3 57 -3 57 -33z"/>
<path d="M4790 2300 l0 -170 86 0 c47 0 105 5 130 11 89 23 144 108 124 193
-12 54 -38 87 -90 114 -37 19 -60 22 -147 22 l-103 0 0 -170z m195 86 c39 -17
55 -42 55 -89 0 -40 -30 -73 -81 -87 -69 -20 -69 -21 -69 90 l0 100 30 0 c17
0 46 -6 65 -14z"/>
<path d="M5250 2300 l0 -170 140 0 140 0 0 35 0 35 -95 0 -95 0 0 30 0 30 80
0 c87 0 98 7 86 55 -6 24 -9 25 -86 25 l-80 0 0 30 0 30 95 0 95 0 0 35 0 35
-140 0 -140 0 0 -170z"/>
<path d="M6030 2300 l0 -170 40 0 40 0 0 118 c0 64 3 141 6 170 l7 52 -47 0
-46 0 0 -170z"/>
<path d="M6710 2300 l0 -170 45 0 44 0 3 94 3 95 78 -95 c75 -90 80 -94 118
-94 l39 0 0 170 0 170 -45 0 -44 0 -3 -97 -3 -97 -80 97 c-75 91 -82 97 -117
97 l-38 0 0 -170z"/>
<path d="M2930 2387 c-3 -2 -84 -7 -180 -11 -239 -9 -584 -26 -705 -35 -97 -7
-98 -7 -45 -14 65 -8 669 -27 853 -27 l128 0 -3 43 c-2 33 -7 43 -23 45 -12 2
-23 1 -25 -1z"/>
<path d="M7275 2344 c-3 -20 -4 -39 0 -42 7 -7 964 18 1025 27 36 6 18 9 -85
14 -71 4 -164 10 -205 13 -121 7 -562 24 -649 24 l-79 0 -7 -36z"/>
</g>
</svg>
